<svg xmlns="http://www.w3.org/2000/svg" version="1.1" viewBox="0.00 0.00 315.00 315.00" width="150" height="150">
<path fill="#ffffff" d="&#10;  M 190.99 24.31&#10;  C 244.24 28.84 285.77 69.46 300.80 118.88&#10;  Q 300.95 119.38 300.50 119.63&#10;  Q 298.57 120.68 297.01 120.90&#10;  Q 259.97 126.17 223.25 119.02&#10;  Q 192.91 113.11 170.23 103.53&#10;  Q 147.54 93.93 141.24 91.57&#10;  C 106.90 78.67 65.14 82.48 47.69 119.53&#10;  Q 47.45 120.04 46.89 120.04&#10;  L 36.83 120.08&#10;  Q 36.15 120.09 36.46 119.48&#10;  C 53.64 86.32 78.45 59.04 111.39 41.09&#10;  Q 148.76 20.72 190.99 24.31&#10;  Z"/>
<path fill="#ffffff" d="&#10;  M 95.64 140.94&#10;  C 82.76 139.28 84.24 162.28 86.32 169.63&#10;  Q 87.33 173.22 89.52 174.86&#10;  C 96.27 179.93 102.16 174.61 103.50 167.91&#10;  A 0.78 0.77 -88.8 0 1 104.12 167.31&#10;  Q 109.20 166.40 114.29 167.17&#10;  Q 114.91 167.27 114.98 167.89&#10;  C 115.51 172.72 111.66 178.02 108.13 180.70&#10;  C 101.81 185.49 92.31 185.71 85.16 182.49&#10;  C 70.03 175.68 70.00 153.43 77.80 141.54&#10;  C 83.78 132.40 96.51 129.56 105.86 134.88&#10;  Q 113.48 139.23 114.89 149.25&#10;  Q 114.99 149.98 114.25 149.99&#10;  L 103.66 150.02&#10;  A 0.81 0.81 0.0 0 1 102.85 149.20&#10;  C 102.92 144.51 100.28 141.54 95.64 140.94&#10;  Z"/>
<path fill="#ffffff" d="&#10;  M 193.98 151.47&#10;  L 194.00 135.53&#10;  Q 194.00 132.93 196.59 132.94&#10;  L 203.94 132.94&#10;  A 1.08 1.07 89.7 0 1 205.01 134.01&#10;  C 205.04 150.31 204.02 167.04 205.61 183.32&#10;  Q 205.67 184.03 204.97 184.02&#10;  L 195.80 183.94&#10;  A 1.01 1.01 0.0 0 1 194.85 183.24&#10;  L 193.94 180.39&#10;  A 0.47 0.47 0.0 0 0 193.14 180.22&#10;  Q 188.84 184.98 183.53 184.71&#10;  C 176.10 184.33 171.09 178.93 169.38 171.77&#10;  C 167.41 163.51 170.70 150.40 180.47 148.20&#10;  Q 187.71 146.56 193.48 151.69&#10;  Q 193.98 152.14 193.98 151.47&#10;  Z&#10;  M 194.29 166.94&#10;  C 194.60 162.94 193.61 157.67 190.26 155.65&#10;  Q 186.43 153.34 182.72 156.75&#10;  C 179.38 159.82 179.62 166.94 180.09 171.00&#10;  Q 180.73 176.43 185.42 177.46&#10;  C 192.57 179.03 193.86 172.42 194.29 166.94&#10;  Z"/>
<path fill="#ffffff" d="&#10;  M 156.3232 155.0545&#10;  A 18.56 18.39 -37.1 0 1 152.6130 180.9176&#10;  A 18.56 18.39 -37.1 0 1 126.7168 177.4455&#10;  A 18.56 18.39 -37.1 0 1 130.4270 151.5824&#10;  A 18.56 18.39 -37.1 0 1 156.3232 155.0545&#10;  Z&#10;  M 148.65 167.37&#10;  C 148.91 162.93 148.21 157.95 144.09 155.86&#10;  C 139.52 153.55 135.17 157.82 134.99 162.26&#10;  C 134.75 168.40 133.86 175.47 139.99 177.38&#10;  C 146.11 179.29 148.38 171.96 148.65 167.37&#10;  Z"/>
<path fill="#ffffff" d="&#10;  M 224.92 169.70&#10;  C 224.80 175.83 232.55 182.11 236.04 174.29&#10;  A 1.04 1.03 -85.3 0 1 236.69 173.73&#10;  Q 241.11 172.44 245.64 173.29&#10;  A 0.67 0.67 0.0 0 1 246.17 174.11&#10;  C 243.66 184.30 232.15 186.16 223.58 183.10&#10;  C 208.41 177.69 210.98 152.48 225.68 148.61&#10;  Q 239.83 144.88 245.77 158.37&#10;  C 247.00 161.18 247.33 164.51 247.81 167.58&#10;  Q 247.99 168.76 246.80 168.78&#10;  L 225.55 169.08&#10;  A 0.64 0.63 -0.0 0 0 224.92 169.70&#10;  Z&#10;  M 226.10 162.08&#10;  L 234.94 162.04&#10;  A 1.03 1.03 0.0 0 0 235.96 161.00&#10;  L 235.96 160.68&#10;  A 5.67 5.44 89.7 0 0 230.49 155.04&#10;  L 230.47 155.04&#10;  A 5.67 5.44 89.7 0 0 225.06 160.74&#10;  L 225.06 161.06&#10;  A 1.03 1.03 0.0 0 0 226.10 162.08&#10;  Z"/>
<path fill="#ffffff" d="&#10;  M 162.59 219.12&#10;  C 184.38 229.13 209.85 236.23 233.79 229.87&#10;  Q 259.79 222.96 272.36 197.61&#10;  Q 272.58 197.17 273.06 197.10&#10;  Q 277.85 196.38 282.61 197.30&#10;  A 0.77 0.76 19.6 0 1 283.14 198.41&#10;  C 259.90 241.79 223.48 276.06 175.80 289.04&#10;  Q 144.01 297.69 110.88 289.70&#10;  C 66.51 278.99 31.16 241.51 19.27 197.93&#10;  A 0.90 0.90 0.0 0 1 19.98 196.81&#10;  C 67.62 188.58 119.09 199.13 162.59 219.12&#10;  Z"/>
</svg>